<svg width="16" height="16" viewBox="0 0 16 16" fill="none" xmlns="http://www.w3.org/2000/svg">
<path fill-rule="evenodd" clip-rule="evenodd" d="M3.82429 2.91531C3.19922 3.5898 3.19922 4.67614 3.19922 6.84823V9.15224C3.19922 11.3243 3.19922 12.4107 3.82429 13.0852C4.44935 13.7597 5.45469 13.7602 7.46589 13.7602H8.53255C10.5438 13.7602 11.5496 13.7602 12.1742 13.0852C12.7987 12.4101 12.7992 11.3243 12.7992 9.15224V6.84823C12.7992 4.67614 12.7992 3.5898 12.1742 2.91531C11.5491 2.24081 10.5438 2.24023 8.53255 2.24023H7.46589C5.45469 2.24023 4.44882 2.24023 3.82429 2.91531ZM5.46589 5.69623C5.46589 5.58166 5.50803 5.47178 5.58304 5.39076C5.65806 5.30975 5.7598 5.26423 5.86589 5.26423H10.1326C10.2386 5.26423 10.3404 5.30975 10.4154 5.39076C10.4904 5.47178 10.5326 5.58166 10.5326 5.69623C10.5326 5.81081 10.4904 5.92069 10.4154 6.0017C10.3404 6.08272 10.2386 6.12823 10.1326 6.12823H5.86589C5.7598 6.12823 5.65806 6.08272 5.58304 6.0017C5.50803 5.92069 5.46589 5.81081 5.46589 5.69623ZM5.46589 8.00023C5.46589 7.88566 5.50803 7.77578 5.58304 7.69476C5.65806 7.61375 5.7598 7.56823 5.86589 7.56823H10.1326C10.2386 7.56823 10.3404 7.61375 10.4154 7.69476C10.4904 7.77578 10.5326 7.88566 10.5326 8.00023C10.5326 8.11481 10.4904 8.22469 10.4154 8.3057C10.3404 8.38672 10.2386 8.43223 10.1326 8.43223H5.86589C5.7598 8.43223 5.65806 8.38672 5.58304 8.3057C5.50803 8.22469 5.46589 8.11481 5.46589 8.00023ZM5.86589 9.87223C5.7598 9.87223 5.65806 9.91775 5.58304 9.99876C5.50803 10.0798 5.46589 10.1897 5.46589 10.3042C5.46589 10.4188 5.50803 10.5287 5.58304 10.6097C5.65806 10.6907 5.7598 10.7362 5.86589 10.7362H8.53255C8.63864 10.7362 8.74038 10.6907 8.81539 10.6097C8.89041 10.5287 8.93255 10.4188 8.93255 10.3042C8.93255 10.1897 8.89041 10.0798 8.81539 9.99876C8.74038 9.91775 8.63864 9.87223 8.53255 9.87223H5.86589Z" fill="#ACB4BD"/>
</svg>
