<svg width="16" height="16" viewBox="0 0 16 16" fill="none" xmlns="http://www.w3.org/2000/svg">
<path d="M5.66576 7.84347C6.30485 7.84347 6.91776 7.57742 7.36967 7.10384C7.82158 6.63027 8.07545 5.98796 8.07545 5.31822C8.07545 4.64848 7.82158 4.00617 7.36967 3.5326C6.91776 3.05902 6.30485 2.79297 5.66576 2.79297C5.02667 2.79297 4.41375 3.05902 3.96184 3.5326C3.50994 4.00617 3.25606 4.64848 3.25606 5.31822C3.25606 5.98796 3.50994 6.63027 3.96184 7.10384C4.41375 7.57742 5.02667 7.84347 5.66576 7.84347ZM11.0876 7.84347C11.5669 7.84347 12.0266 7.64393 12.3655 7.28875C12.7044 6.93357 12.8948 6.45184 12.8948 5.94953C12.8948 5.44723 12.7044 4.9655 12.3655 4.61032C12.0266 4.25513 11.5669 4.0556 11.0876 4.0556C10.6083 4.0556 10.1486 4.25513 9.80964 4.61032C9.47071 4.9655 9.2803 5.44723 9.2803 5.94953C9.2803 6.45184 9.47071 6.93357 9.80964 7.28875C10.1486 7.64393 10.6083 7.84347 11.0876 7.84347ZM2.87955 8.79044C2.57997 8.79044 2.29267 8.91516 2.08084 9.13714C1.86901 9.35913 1.75 9.66022 1.75 9.97416V10.3687C1.75 10.3687 1.75 13.2096 5.66576 13.2096C9.58151 13.2096 9.58151 10.3687 9.58151 10.3687V9.97416C9.58151 9.66022 9.46251 9.35913 9.25068 9.13714C9.03885 8.91516 8.75154 8.79044 8.45197 8.79044H2.87955ZM9.48332 12.2908C9.89779 12.4669 10.4228 12.5783 11.0873 12.5783C14.25 12.5783 14.25 10.0531 14.25 10.0531V9.97416C14.25 9.66027 14.131 9.35924 13.9193 9.13726C13.7075 8.91528 13.4203 8.79053 13.1208 8.79044H9.76435C10.0352 9.11947 10.1839 9.53965 10.1833 9.97416V10.3829L10.183 10.4009L10.1812 10.4483C10.1796 10.4847 10.1761 10.5299 10.1707 10.584C10.1556 10.725 10.1314 10.8647 10.0984 11.0022C9.98419 11.4731 9.77439 11.9126 9.48332 12.2908Z" fill="#ACB4BD"/>
</svg>
