<svg width="14" height="14" viewBox="0 0 14 14" fill="none" xmlns="http://www.w3.org/2000/svg">
<path d="M7.735 1.92496C7.82629 1.85965 7.93313 1.81943 8.04483 1.80833C8.15653 1.79722 8.26919 1.81561 8.37156 1.86166C8.47393 1.9077 8.56243 1.9798 8.62822 2.07075C8.69402 2.1617 8.7348 2.26832 8.7465 2.37996L8.75 2.44646V11.5535C8.75003 11.6657 8.72062 11.776 8.6647 11.8733C8.60877 11.9707 8.52829 12.0516 8.43129 12.1081C8.33429 12.1646 8.22417 12.1947 8.11191 12.1953C7.99966 12.196 7.88921 12.1671 7.79158 12.1117L7.73558 12.0755L3.89666 9.33329H2.33333C2.03899 9.33339 1.7555 9.22222 1.53968 9.02209C1.32386 8.82195 1.19166 8.54763 1.16958 8.25413L1.16666 8.16663V5.83329C1.16657 5.53896 1.27773 5.25546 1.47787 5.03964C1.67801 4.82382 1.95232 4.69162 2.24583 4.66954L2.33333 4.66663H3.89666L7.735 1.92496ZM11.4724 3.95671C11.901 4.33935 12.2438 4.8083 12.4783 5.33278C12.7129 5.85727 12.8339 6.42542 12.8333 6.99996C12.8339 7.5745 12.7129 8.14265 12.4783 8.66713C12.2438 9.19162 11.901 9.66057 11.4724 10.0432C11.4155 10.0951 11.3488 10.1353 11.2763 10.1613C11.2038 10.1873 11.1268 10.1987 11.0498 10.1948C10.9729 10.1909 10.8974 10.1718 10.8279 10.1386C10.7584 10.1054 10.6961 10.0587 10.6447 10.0013C10.5933 9.94392 10.5538 9.8769 10.5284 9.80412C10.5031 9.73135 10.4924 9.65428 10.497 9.57736C10.5016 9.50044 10.5214 9.42519 10.5553 9.35597C10.5891 9.28674 10.6364 9.22491 10.6942 9.17404C11.0006 8.90082 11.2456 8.56584 11.4132 8.19112C11.5808 7.8164 11.6672 7.41045 11.6667 6.99996C11.6667 6.13663 11.2922 5.36079 10.6942 4.82588C10.6364 4.77501 10.5891 4.71318 10.5553 4.64395C10.5214 4.57473 10.5016 4.49948 10.497 4.42256C10.4924 4.34564 10.5031 4.26857 10.5284 4.19579C10.5538 4.12302 10.5933 4.056 10.6447 3.99858C10.6961 3.94117 10.7584 3.89451 10.8279 3.8613C10.8974 3.82809 10.9729 3.80899 11.0498 3.8051C11.1268 3.8012 11.2038 3.8126 11.2763 3.83862C11.3488 3.86464 11.4155 3.90478 11.4724 3.95671ZM10.3057 5.26104C10.5505 5.47964 10.7463 5.74751 10.8804 6.04709C11.0144 6.34667 11.0835 6.67119 11.0833 6.99938C11.0837 7.32776 11.0147 7.65252 10.8806 7.95232C10.7466 8.25212 10.5507 8.52017 10.3057 8.73888C10.1951 8.83712 10.0513 8.88966 9.9034 8.88586C9.7555 8.88206 9.61457 8.8222 9.50914 8.71841C9.40371 8.61461 9.34166 8.47462 9.33555 8.3268C9.32944 8.17897 9.37974 8.03435 9.47625 7.92221L9.52758 7.86971C9.76675 7.65504 9.91666 7.34529 9.91666 6.99996C9.91735 6.70124 9.80286 6.41375 9.597 6.19729L9.52758 6.13021C9.46969 6.07934 9.42246 6.01751 9.38861 5.94829C9.35475 5.87906 9.33495 5.80381 9.33034 5.72689C9.32574 5.64997 9.33642 5.5729 9.36176 5.50013C9.38711 5.42736 9.42663 5.36033 9.47803 5.30292C9.52943 5.24551 9.5917 5.19885 9.66123 5.16564C9.73077 5.13243 9.8062 5.11332 9.88316 5.10943C9.96012 5.10554 10.0371 5.11693 10.1096 5.14295C10.1822 5.16898 10.2488 5.20911 10.3057 5.26104Z" fill="#ACB4BD"/>
</svg>
