<svg width="14" height="14" viewBox="0 0 14 14" fill="none" xmlns="http://www.w3.org/2000/svg">
<path d="M2.681 4.66665L8.75 10.7356V11.5535C8.75004 11.6714 8.71756 11.7871 8.65614 11.8878C8.59472 11.9885 8.50673 12.0703 8.40184 12.1243C8.29695 12.1782 8.17921 12.2022 8.06157 12.1936C7.94393 12.185 7.83094 12.1442 7.735 12.0756L3.89667 9.33331H2.33333C2.02392 9.33331 1.72717 9.2104 1.50838 8.9916C1.28958 8.77281 1.16667 8.47607 1.16667 8.16665V5.83331C1.16667 5.52389 1.28958 5.22715 1.50838 5.00836C1.72717 4.78956 2.02392 4.66665 2.33333 4.66665H2.681ZM8.75 2.44648V7.92515L9.39925 8.5744C9.345 8.47046 9.32333 8.35258 9.33706 8.23614C9.3508 8.11971 9.3993 8.01011 9.47625 7.92165L9.52758 7.86973C9.76675 7.65506 9.91667 7.34531 9.91667 6.99998C9.91736 6.70126 9.80286 6.41377 9.597 6.19731L9.52758 6.13023C9.41397 6.0266 9.34588 5.88231 9.33811 5.72873C9.33034 5.57515 9.38352 5.42472 9.4861 5.31016C9.58867 5.19559 9.73232 5.12616 9.88582 5.11697C10.0393 5.10777 10.1902 5.15956 10.3058 5.26106C10.5506 5.47975 10.7464 5.74772 10.8804 6.0474C11.0144 6.34708 11.0836 6.6717 11.0833 6.99998C11.0837 7.32828 11.0146 7.65293 10.8806 7.95263C10.7466 8.25233 10.5507 8.52028 10.3058 8.7389C10.2174 8.81813 10.1069 8.86852 9.98911 8.88332C9.87133 8.89812 9.75183 8.87663 9.64658 8.82173L10.5041 9.67923C10.4927 9.58593 10.504 9.49127 10.5372 9.4033C10.5703 9.31534 10.6242 9.23669 10.6943 9.17406C11.0006 8.90084 11.2456 8.56586 11.4132 8.19114C11.5808 7.81643 11.6672 7.41047 11.6667 6.99998C11.6667 6.13665 11.2922 5.36081 10.6943 4.8259C10.6364 4.77503 10.5891 4.7132 10.5553 4.64397C10.5214 4.57475 10.5016 4.4995 10.497 4.42258C10.4924 4.34566 10.5031 4.26859 10.5284 4.19582C10.5538 4.12304 10.5933 4.05602 10.6447 3.99861C10.6961 3.94119 10.7584 3.89454 10.8279 3.86132C10.8974 3.82811 10.9729 3.80901 11.0498 3.80512C11.1268 3.80122 11.2038 3.81262 11.2763 3.83864C11.3488 3.86466 11.4155 3.9048 11.4724 3.95673C11.901 4.33937 12.2438 4.80832 12.4784 5.33281C12.7129 5.85729 12.8339 6.42544 12.8333 6.99998C12.8339 7.57452 12.7129 8.14267 12.4784 8.66716C12.2438 9.19164 11.901 9.66059 11.4724 10.0432C11.4106 10.0988 11.3375 10.1404 11.2583 10.1654C11.179 10.1903 11.0953 10.198 11.0128 10.1879L11.9496 11.1247C12.0558 11.2347 12.1146 11.3821 12.1133 11.535C12.112 11.688 12.0506 11.8343 11.9425 11.9425C11.8343 12.0506 11.688 12.112 11.5351 12.1133C11.3821 12.1146 11.2348 12.0558 11.1248 11.9496L2.05042 2.87581C1.9947 2.822 1.95026 2.75764 1.91969 2.68647C1.88912 2.6153 1.87303 2.53875 1.87236 2.4613C1.87168 2.38384 1.88644 2.30703 1.91577 2.23534C1.9451 2.16365 1.98842 2.09852 2.04319 2.04375C2.09796 1.98898 2.16309 1.94567 2.23478 1.91633C2.30647 1.887 2.38328 1.87224 2.46074 1.87292C2.53819 1.87359 2.61473 1.88968 2.6859 1.92025C2.75707 1.95083 2.82144 1.99527 2.87525 2.05098L4.82708 4.00165L7.73558 1.92381C7.83156 1.85532 7.94455 1.81459 8.06215 1.80611C8.17975 1.79762 8.29742 1.8217 8.40223 1.87571C8.50704 1.92971 8.59495 2.01155 8.6563 2.11224C8.71765 2.21293 8.75007 2.32857 8.75 2.44648Z" fill="#ACB4BD"/>
</svg>
